<svg width="623" height="189" viewBox="0 0 623 189" fill="none" xmlns="http://www.w3.org/2000/svg">
<path d="M3 186.303C14.8333 142.137 56.2 69.4032 127 131.803C215.5 209.803 245.5 145.803 266 99.3032C286.5 52.8032 341.5 -22.1968 402.5 62.3032C463.5 146.803 506 126.303 530.5 82.8032C555 39.3032 591.5 52.8032 621.5 62.3032" stroke="#33404F" stroke-width="3" stroke-linecap="round" stroke-dasharray="10 10"/>
<path d="M1.5 187.5C9.16667 131.667 44.7 34.4 125.5 92C226.5 164 271.5 149 294.5 115C317.5 81.0001 365 8.00006 434.5 54.0001C504 100 521.5 61.5 538 36C554.5 10.5 569.5 2 613 28" stroke="#00DDA3" stroke-width="3" stroke-linecap="round" stroke-dasharray="10 10"/>
<circle cx="340" cy="25" r="13" fill="#33404F"/>
<circle cx="567" cy="13" r="13" fill="#00DDA3"/>
</svg>
